<mxfile host="app.diagrams.net" modified="2022-04-07T02:22:48.885Z" agent="5.0 (Windows NT 10.0; Win64; x64) AppleWebKit/537.36 (KHTML, like Gecko) Chrome/100.0.4896.75 Safari/537.36" etag="QXmcnnaPbkWUIpJyDhAx" version="17.4.0" type="github">
  <diagram id="B4vOlXodC4othCkLdv9m" name="Page-1">
    <mxGraphModel dx="1038" dy="617" grid="1" gridSize="10" guides="1" tooltips="1" connect="1" arrows="1" fold="1" page="1" pageScale="1" pageWidth="1600" pageHeight="900" math="0" shadow="1">
      <root>
        <mxCell id="0" />
        <mxCell id="1" parent="0" />
        <mxCell id="evLRHdAnvVOPzubBJERt-2" value="Prometheus Server" style="shape=cylinder3;whiteSpace=wrap;html=1;boundedLbl=1;backgroundOutline=1;size=15;fillColor=#d5e8d4;strokeColor=#82b366;" parent="1" vertex="1">
          <mxGeometry x="150" y="270" width="170" height="80" as="geometry" />
        </mxCell>
        <mxCell id="evLRHdAnvVOPzubBJERt-4" value="AlertManager" style="ellipse;whiteSpace=wrap;html=1;fillColor=#fff2cc;strokeColor=#d6b656;" parent="1" vertex="1">
          <mxGeometry x="590" y="270" width="120" height="80" as="geometry" />
        </mxCell>
        <mxCell id="evLRHdAnvVOPzubBJERt-5" value="" style="endArrow=classic;html=1;rounded=0;exitX=1;exitY=0.5;exitDx=0;exitDy=0;exitPerimeter=0;entryX=0;entryY=0.5;entryDx=0;entryDy=0;startArrow=none;" parent="1" source="evLRHdAnvVOPzubBJERt-7" target="evLRHdAnvVOPzubBJERt-4" edge="1">
          <mxGeometry width="50" height="50" relative="1" as="geometry">
            <mxPoint x="440" y="370" as="sourcePoint" />
            <mxPoint x="490" y="320" as="targetPoint" />
          </mxGeometry>
        </mxCell>
        <mxCell id="evLRHdAnvVOPzubBJERt-6" value="yrcloudfile 告警流程架构" style="text;html=1;align=center;verticalAlign=middle;resizable=0;points=[];autosize=1;strokeColor=none;fillColor=none;" parent="1" vertex="1">
          <mxGeometry x="290" y="120" width="150" height="20" as="geometry" />
        </mxCell>
        <mxCell id="evLRHdAnvVOPzubBJERt-8" value="MySQL/ETCD" style="shape=cylinder3;whiteSpace=wrap;html=1;boundedLbl=1;backgroundOutline=1;size=15;fillColor=#d5e8d4;strokeColor=#82b366;" parent="1" vertex="1">
          <mxGeometry x="595" y="530" width="110" height="80" as="geometry" />
        </mxCell>
        <mxCell id="evLRHdAnvVOPzubBJERt-9" value="" style="endArrow=classic;html=1;rounded=0;exitX=0.5;exitY=1;exitDx=0;exitDy=0;entryX=0.5;entryY=0;entryDx=0;entryDy=0;entryPerimeter=0;startArrow=none;" parent="1" source="evLRHdAnvVOPzubBJERt-10" target="evLRHdAnvVOPzubBJERt-8" edge="1">
          <mxGeometry width="50" height="50" relative="1" as="geometry">
            <mxPoint x="530" y="520" as="sourcePoint" />
            <mxPoint x="580" y="470" as="targetPoint" />
          </mxGeometry>
        </mxCell>
        <mxCell id="evLRHdAnvVOPzubBJERt-10" value="webhook配置" style="shape=card;whiteSpace=wrap;html=1;" parent="1" vertex="1">
          <mxGeometry x="610" y="350" width="80" height="60" as="geometry" />
        </mxCell>
        <mxCell id="evLRHdAnvVOPzubBJERt-11" value="" style="endArrow=none;html=1;rounded=0;exitX=0.5;exitY=1;exitDx=0;exitDy=0;entryX=0.5;entryY=0;entryDx=0;entryDy=0;entryPerimeter=0;" parent="1" source="evLRHdAnvVOPzubBJERt-4" target="evLRHdAnvVOPzubBJERt-10" edge="1">
          <mxGeometry width="50" height="50" relative="1" as="geometry">
            <mxPoint x="650" y="350" as="sourcePoint" />
            <mxPoint x="650" y="530" as="targetPoint" />
          </mxGeometry>
        </mxCell>
        <mxCell id="evLRHdAnvVOPzubBJERt-12" value="krypton-auth API" style="text;html=1;align=center;verticalAlign=middle;resizable=0;points=[];autosize=1;strokeColor=none;fillColor=none;" parent="1" vertex="1">
          <mxGeometry x="650" y="480" width="100" height="20" as="geometry" />
        </mxCell>
        <mxCell id="evLRHdAnvVOPzubBJERt-13" value="AlertGroup(Users)&lt;br&gt;" style="shape=umlActor;verticalLabelPosition=bottom;verticalAlign=top;html=1;outlineConnect=0;" parent="1" vertex="1">
          <mxGeometry x="240" y="530" width="30" height="60" as="geometry" />
        </mxCell>
        <mxCell id="evLRHdAnvVOPzubBJERt-16" value="" style="shape=umlActor;verticalLabelPosition=bottom;verticalAlign=top;html=1;outlineConnect=0;" parent="1" vertex="1">
          <mxGeometry x="220" y="530" width="30" height="60" as="geometry" />
        </mxCell>
        <mxCell id="evLRHdAnvVOPzubBJERt-22" value="" style="endArrow=classic;html=1;rounded=0;exitX=0;exitY=0.5;exitDx=0;exitDy=0;exitPerimeter=0;" parent="1" source="evLRHdAnvVOPzubBJERt-8" edge="1">
          <mxGeometry width="50" height="50" relative="1" as="geometry">
            <mxPoint x="460" y="520" as="sourcePoint" />
            <mxPoint x="270" y="570" as="targetPoint" />
          </mxGeometry>
        </mxCell>
        <mxCell id="evLRHdAnvVOPzubBJERt-23" value="SMTP" style="shape=step;perimeter=stepPerimeter;whiteSpace=wrap;html=1;fixedSize=1;rotation=0;size=-30;" parent="1" vertex="1">
          <mxGeometry x="390" y="545" width="80" height="50" as="geometry" />
        </mxCell>
        <mxCell id="NkOSjM8Mr65Xxy1mVrUG-1" value="&lt;font color=&quot;#ff0000&quot;&gt;alert_rule&lt;/font&gt;&lt;br&gt;alert_history&lt;br&gt;alert_group&lt;br&gt;alert_notice" style="shape=note;whiteSpace=wrap;html=1;backgroundOutline=1;darkOpacity=0.05;" vertex="1" parent="1">
          <mxGeometry x="420" y="400" width="80" height="100" as="geometry" />
        </mxCell>
        <mxCell id="NkOSjM8Mr65Xxy1mVrUG-2" value="alert_notify" style="shape=note;whiteSpace=wrap;html=1;backgroundOutline=1;darkOpacity=0.05;" vertex="1" parent="1">
          <mxGeometry x="325" y="670" width="80" height="100" as="geometry" />
        </mxCell>
        <mxCell id="NkOSjM8Mr65Xxy1mVrUG-4" value="" style="endArrow=classic;html=1;rounded=0;exitX=0;exitY=0.5;exitDx=0;exitDy=0;entryX=0;entryY=0;entryDx=65;entryDy=15;entryPerimeter=0;" edge="1" parent="1" source="evLRHdAnvVOPzubBJERt-23" target="NkOSjM8Mr65Xxy1mVrUG-2">
          <mxGeometry width="50" height="50" relative="1" as="geometry">
            <mxPoint x="500" y="810" as="sourcePoint" />
            <mxPoint x="550" y="760" as="targetPoint" />
          </mxGeometry>
        </mxCell>
        <mxCell id="NkOSjM8Mr65Xxy1mVrUG-5" value="" style="endArrow=classic;html=1;rounded=0;exitX=0;exitY=0;exitDx=80;exitDy=65;exitPerimeter=0;entryX=0.5;entryY=1;entryDx=0;entryDy=0;entryPerimeter=0;" edge="1" parent="1" source="NkOSjM8Mr65Xxy1mVrUG-2" target="evLRHdAnvVOPzubBJERt-8">
          <mxGeometry width="50" height="50" relative="1" as="geometry">
            <mxPoint x="500" y="810" as="sourcePoint" />
            <mxPoint x="670" y="740" as="targetPoint" />
            <Array as="points">
              <mxPoint x="650" y="735" />
            </Array>
          </mxGeometry>
        </mxCell>
        <mxCell id="NkOSjM8Mr65Xxy1mVrUG-6" value="" style="endArrow=classic;startArrow=classic;html=1;rounded=0;entryX=0.145;entryY=0;entryDx=0;entryDy=4.35;entryPerimeter=0;exitX=0;exitY=0;exitDx=80;exitDy=65;exitPerimeter=0;" edge="1" parent="1" source="NkOSjM8Mr65Xxy1mVrUG-1" target="evLRHdAnvVOPzubBJERt-8">
          <mxGeometry width="50" height="50" relative="1" as="geometry">
            <mxPoint x="500" y="610" as="sourcePoint" />
            <mxPoint x="550" y="560" as="targetPoint" />
          </mxGeometry>
        </mxCell>
        <mxCell id="evLRHdAnvVOPzubBJERt-7" value="PromQL&lt;br&gt;(&lt;font color=&quot;#ff0000&quot;&gt;Alert Rule&lt;/font&gt;)" style="shape=card;whiteSpace=wrap;html=1;" parent="1" vertex="1">
          <mxGeometry x="340" y="280" width="70" height="60" as="geometry" />
        </mxCell>
        <mxCell id="NkOSjM8Mr65Xxy1mVrUG-7" value="" style="endArrow=none;html=1;rounded=0;exitX=1;exitY=0.5;exitDx=0;exitDy=0;exitPerimeter=0;entryX=0;entryY=0.5;entryDx=0;entryDy=0;" edge="1" parent="1" source="evLRHdAnvVOPzubBJERt-2" target="evLRHdAnvVOPzubBJERt-7">
          <mxGeometry width="50" height="50" relative="1" as="geometry">
            <mxPoint x="320" y="310" as="sourcePoint" />
            <mxPoint x="590" y="310" as="targetPoint" />
          </mxGeometry>
        </mxCell>
      </root>
    </mxGraphModel>
  </diagram>
</mxfile>
